<svg width="25" height="25" viewBox="0 0 25 25" fill="none" xmlns="http://www.w3.org/2000/svg">
<path d="M22.5835 5.43318V17.3232C22.5835 18.2932 21.7935 19.1832 20.8235 19.3032L20.5135 19.3432C18.8735 19.5632 16.5635 20.2432 14.7035 21.0232C14.0535 21.2932 13.3335 20.8032 13.3335 20.0932V6.18318C13.3335 5.81318 13.5435 5.47318 13.8735 5.29318C15.7035 4.30318 18.4735 3.42318 20.3535 3.26318H20.4135C21.6135 3.26318 22.5835 4.23318 22.5835 5.43318Z" fill="#353535"/>
<path d="M11.2937 5.29318C9.46373 4.30318 6.69373 3.42318 4.81373 3.26318H4.74373C3.54373 3.26318 2.57373 4.23318 2.57373 5.43318V17.3232C2.57373 18.2932 3.36373 19.1832 4.33373 19.3032L4.64373 19.3432C6.28373 19.5632 8.59373 20.2432 10.4537 21.0232C11.1037 21.2932 11.8237 20.8032 11.8237 20.0932V6.18318C11.8237 5.80318 11.6237 5.47318 11.2937 5.29318ZM5.58373 8.32318H7.83373C8.24373 8.32318 8.58373 8.66318 8.58373 9.07318C8.58373 9.49318 8.24373 9.82318 7.83373 9.82318H5.58373C5.17373 9.82318 4.83373 9.49318 4.83373 9.07318C4.83373 8.66318 5.17373 8.32318 5.58373 8.32318ZM8.58373 12.8232H5.58373C5.17373 12.8232 4.83373 12.4932 4.83373 12.0732C4.83373 11.6632 5.17373 11.3232 5.58373 11.3232H8.58373C8.99373 11.3232 9.33373 11.6632 9.33373 12.0732C9.33373 12.4932 8.99373 12.8232 8.58373 12.8232Z" fill="#353535"/>
</svg>
