<svg width="25" height="25" viewBox="0 0 25 25" fill="none" xmlns="http://www.w3.org/2000/svg">
<path d="M22.5835 17.3232V5.2532C22.5835 4.0532 21.6035 3.1632 20.4135 3.2632H20.3535C18.2535 3.4432 15.0635 4.5132 13.2835 5.6332L13.1135 5.7432C12.8235 5.9232 12.3435 5.9232 12.0535 5.7432L11.8035 5.5932C10.0235 4.4832 6.8435 3.4232 4.7435 3.2532C3.5535 3.1532 2.5835 4.0532 2.5835 5.2432V17.3232C2.5835 18.2832 3.3635 19.1832 4.3235 19.3032L4.6135 19.3432C6.7835 19.6332 10.1335 20.7332 12.0535 21.7832L12.0935 21.8032C12.3635 21.9532 12.7935 21.9532 13.0535 21.8032C14.9735 20.7432 18.3335 19.6332 20.5135 19.3432L20.8435 19.3032C21.8035 19.1832 22.5835 18.2832 22.5835 17.3232Z" stroke="#353535" stroke-width="1.5" stroke-linecap="round" stroke-linejoin="round"/>
<path d="M12.5835 6.07324V21.0732" stroke="#353535" stroke-width="1.5" stroke-linecap="round" stroke-linejoin="round"/>
<path d="M8.3335 9.07324H6.0835" stroke="#353535" stroke-width="1.5" stroke-linecap="round" stroke-linejoin="round"/>
<path d="M9.0835 12.0732H6.0835" stroke="#353535" stroke-width="1.5" stroke-linecap="round" stroke-linejoin="round"/>
</svg>
