<svg width="21" height="21" viewBox="0 0 21 21" fill="none" xmlns="http://www.w3.org/2000/svg">
<path d="M18.0835 5.56657C15.3085 5.29157 12.5168 5.1499 9.7335 5.1499C8.0835 5.1499 6.4335 5.23324 4.7835 5.3999L3.0835 5.56657" stroke="#292D32" stroke-width="1.5" stroke-linecap="round" stroke-linejoin="round"/>
<path d="M7.66699 4.725L7.85033 3.63333C7.98366 2.84167 8.08366 2.25 9.49199 2.25H11.6753C13.0837 2.25 13.192 2.875 13.317 3.64167L13.5003 4.725" stroke="#292D32" stroke-width="1.5" stroke-linecap="round" stroke-linejoin="round"/>
<path d="M16.2917 8.19971L15.75 16.5914C15.6583 17.8997 15.5833 18.9164 13.2583 18.9164H7.90833C5.58333 18.9164 5.50833 17.8997 5.41667 16.5914L4.875 8.19971" stroke="#292D32" stroke-width="1.5" stroke-linecap="round" stroke-linejoin="round"/>
<path d="M9.19189 14.3333H11.9669" stroke="#292D32" stroke-width="1.5" stroke-linecap="round" stroke-linejoin="round"/>
<path d="M8.5 11H12.6667" stroke="#292D32" stroke-width="1.5" stroke-linecap="round" stroke-linejoin="round"/>
</svg>
