<svg width="40" height="40" viewBox="0 0 40 40" fill="none" xmlns="http://www.w3.org/2000/svg">
<path d="M31.1505 19.2168C30.2005 18.9668 29.0838 18.8335 27.7505 18.8335C25.9005 18.8335 25.2171 19.2835 24.2671 20.0002C24.2171 20.0335 24.1671 20.0835 24.1171 20.1335L22.5338 21.8168C21.2005 23.2168 18.8005 23.2335 17.4671 21.8002L15.8838 20.1335C15.8338 20.0835 15.7838 20.0335 15.7338 20.0002C14.7838 19.2835 14.1005 18.8335 12.2505 18.8335C10.9171 18.8335 9.80046 18.9668 8.85046 19.2168C4.88379 20.2835 4.88379 23.4335 4.88379 26.2002V27.7502C4.88379 31.9335 4.88379 36.6668 13.8005 36.6668H26.2005C32.1171 36.6668 35.1171 33.6668 35.1171 27.7502V26.2002C35.1171 23.4335 35.1171 20.2835 31.1505 19.2168ZM23.8838 30.6668H16.1171C15.4838 30.6668 14.9671 30.1502 14.9671 29.5002C14.9671 28.8502 15.4838 28.3335 16.1171 28.3335H23.8838C24.5171 28.3335 25.0338 28.8502 25.0338 29.5002C25.0338 30.1502 24.5171 30.6668 23.8838 30.6668Z" fill="#6585FF"/>
<path d="M21.1166 4.45016C21.1166 3.8335 20.6166 3.3335 20 3.3335C19.3833 3.3335 18.8833 3.8335 18.8833 4.45016V6.66683H21.1333V4.45016H21.1166Z" fill="#6585FF"/>
<path d="M32.0167 14.0334V16.8667C31.9501 16.8334 31.8667 16.8167 31.8001 16.8001H31.7834C30.6001 16.4834 29.2834 16.3334 27.7501 16.3334C25.1834 16.3334 23.9667 17.0834 22.8667 17.9167C22.6334 18.0834 22.4667 18.2501 22.3001 18.4167L20.7167 20.1001C20.5501 20.2667 20.2834 20.3667 20.0001 20.3667C19.8667 20.3667 19.5334 20.3501 19.2834 20.0834L17.6501 18.3667C17.4834 18.1834 17.2834 18.0334 17.2334 18.0001C16.0334 17.0834 14.8167 16.3334 12.2501 16.3334C10.7167 16.3334 9.40007 16.4834 8.20007 16.8001C8.1334 16.8167 8.05007 16.8334 7.9834 16.8667V14.0334C7.9834 10.5834 7.9834 6.66675 15.3501 6.66675H18.8834V12.4167L17.8001 11.3334C17.3501 10.8834 16.6501 10.8834 16.2001 11.3334C15.7667 11.7667 15.7667 12.4834 16.2001 12.9167L19.2001 15.9167C19.2167 15.9334 19.2334 15.9334 19.2334 15.9501C19.3334 16.0334 19.4501 16.1167 19.5667 16.1667C19.7167 16.2167 19.8501 16.2501 20.0001 16.2501C20.1501 16.2501 20.2834 16.2167 20.4334 16.1667C20.5667 16.1167 20.6834 16.0334 20.8001 15.9167L23.8001 12.9167C24.2334 12.4834 24.2334 11.7667 23.8001 11.3334C23.3501 10.8834 22.6501 10.8834 22.2001 11.3334L21.1167 12.4167V6.66675H24.6501C32.0167 6.66675 32.0167 10.5834 32.0167 14.0334Z" fill="#6585FF"/>
</svg>
