<svg width="25" height="25" viewBox="0 0 25 25" fill="none" xmlns="http://www.w3.org/2000/svg">
<path d="M7.3135 20.2833C8.1335 19.4033 9.3835 19.4733 10.1035 20.4333L11.1135 21.7833C11.9235 22.8533 13.2335 22.8533 14.0435 21.7833L15.0535 20.4333C15.7735 19.4733 17.0235 19.4033 17.8435 20.2833C19.6235 22.1833 21.0735 21.5533 21.0735 18.8933V7.62325C21.0835 3.59325 20.1435 2.58325 16.3635 2.58325H8.8035C5.0235 2.58325 4.0835 3.59325 4.0835 7.62325V18.8833C4.0835 21.5533 5.5435 22.1733 7.3135 20.2833Z" stroke="#292D32" stroke-width="1.5" stroke-linecap="round" stroke-linejoin="round"/>
<path d="M9.5835 13.5833L15.5835 7.58325" stroke="#292D32" stroke-width="1.5" stroke-linecap="round" stroke-linejoin="round"/>
<path d="M15.578 13.5833H15.587" stroke="#292D32" stroke-width="2" stroke-linecap="round" stroke-linejoin="round"/>
<path d="M9.578 8.08325H9.58699" stroke="#292D32" stroke-width="2" stroke-linecap="round" stroke-linejoin="round"/>
</svg>
