<svg width="22" height="22" viewBox="0 0 22 22" fill="none" xmlns="http://www.w3.org/2000/svg">
<path d="M8 8L8.33531 6.99408C9.03889 4.88332 11.8236 4.43143 13.1585 6.21138C13.9405 7.25403 13.886 8.70175 13.0277 9.68259L12.1085 10.7331C11.3939 11.5498 11 12.5982 11 13.6834V14M21 11C21 16.5228 16.5228 21 11 21C5.47715 21 1 16.5228 1 11C1 5.47715 5.47715 1 11 1C16.5228 1 21 5.47715 21 11Z" stroke="#4268FB" stroke-width="1.5" stroke-linecap="round"/>
<path d="M12 17C12 17.5523 11.5523 18 11 18C10.4477 18 10 17.5523 10 17C10 16.4477 10.4477 16 11 16C11.5523 16 12 16.4477 12 17Z" fill="#4268FB"/>
</svg>
