<svg width="21" height="21" viewBox="0 0 21 21" fill="none" xmlns="http://www.w3.org/2000/svg">
<path d="M16.7789 3.9454C16.8891 4.11867 16.7003 4.32051 16.5 4.275C16.1084 4.15833 15.675 4.1 15.2334 4.1H12.4831C12.3521 4.1 12.2287 4.03838 12.15 3.93364L11.1917 2.65833C11.0743 2.49204 11.1853 2.25 11.3888 2.25H13.6834C14.9842 2.25 16.1301 2.92561 16.7789 3.9454Z" fill="#A1A5AF"/>
<path d="M17.3667 6.03333C17.0083 5.775 16.6 5.58333 16.1583 5.475C15.8583 5.39167 15.55 5.35 15.2333 5.35H12.1333C11.65 5.35 11.6167 5.30833 11.3583 4.96667L10.1917 3.41667C9.65 2.69167 9.225 2.25 7.86667 2.25H5.93333C3.9 2.25 2.25 3.9 2.25 5.93333V15.2333C2.25 17.2667 3.9 18.9167 5.93333 18.9167H15.2333C17.2667 18.9167 18.9167 17.2667 18.9167 15.2333V9.03333C18.9167 7.79167 18.3083 6.7 17.3667 6.03333ZM12.575 14.2H8.58333C8.25833 14.2 8.00833 13.9417 8.00833 13.6167C8.00833 13.3 8.25833 13.0333 8.58333 13.0333H12.575C12.9 13.0333 13.1583 13.3 13.1583 13.6167C13.1583 13.9417 12.9 14.2 12.575 14.2Z" fill="#A1A5AF"/>
</svg>
