<svg width="20" height="20" viewBox="0 0 20 20" fill="none" xmlns="http://www.w3.org/2000/svg">
<path d="M10.8225 2.00098C11.4063 1.99874 11.9901 2.00461 12.5737 2.01858L12.7289 2.02418C12.9081 2.03058 13.0849 2.03858 13.2984 2.04818C14.1496 2.08818 14.7304 2.22258 15.24 2.42017C15.768 2.62336 16.2127 2.89855 16.6575 3.34334C17.0642 3.74301 17.379 4.22646 17.5799 4.76008C17.7775 5.26966 17.9119 5.85124 17.9519 6.70241C17.9615 6.9152 17.9695 7.0928 17.9759 7.27199L17.9807 7.42719C17.9949 8.01052 18.001 8.59402 17.9991 9.17752L17.9999 9.7743V10.8223C18.0018 11.406 17.9957 11.9898 17.9815 12.5734L17.9767 12.7286C17.9703 12.9078 17.9623 13.0846 17.9527 13.2982C17.9127 14.1493 17.7767 14.7301 17.5799 15.2397C17.3796 15.7739 17.0648 16.2577 16.6575 16.6572C16.2575 17.0639 15.7738 17.3786 15.24 17.5796C14.7304 17.7772 14.1496 17.9116 13.2984 17.9516C13.0849 17.9612 12.9081 17.9692 12.7289 17.9756L12.5737 17.9804C11.9901 17.9946 11.4063 18.0008 10.8225 17.9988L10.2258 17.9996H9.1786C8.59483 18.0016 8.01106 17.9954 7.42746 17.9812L7.27227 17.9764C7.08236 17.9695 6.8925 17.9615 6.70269 17.9524C5.85152 17.9124 5.27074 17.7764 4.76036 17.5796C4.22653 17.3791 3.74299 17.0643 3.34361 16.6572C2.93646 16.2575 2.62142 15.7737 2.42045 15.2397C2.22285 14.7301 2.08846 14.1493 2.04846 13.2982C2.03955 13.1083 2.03155 12.9185 2.02446 12.7286L2.02046 12.5734C2.00571 11.9898 1.99905 11.406 2.00046 10.8223V9.17752C1.99823 8.59402 2.0041 8.01052 2.01806 7.42719L2.02366 7.27199C2.03006 7.0928 2.03806 6.9152 2.04766 6.70241C2.08766 5.85044 2.22205 5.27046 2.41965 4.76008C2.62074 4.2262 2.9364 3.74288 3.34441 3.34414C3.74351 2.93675 4.22675 2.62142 4.76036 2.42017C5.27074 2.22258 5.85072 2.08818 6.70269 2.04818L7.27227 2.02418L7.42746 2.02018C8.01079 2.00544 8.59429 1.99878 9.1778 2.00018L10.8225 2.00098ZM10.0002 6.00084C9.47019 5.99334 8.94401 6.09125 8.45221 6.28888C7.9604 6.48651 7.51278 6.77991 7.13535 7.15204C6.75792 7.52417 6.45822 7.9676 6.25366 8.45656C6.04909 8.94552 5.94375 9.47026 5.94375 10.0003C5.94375 10.5303 6.04909 11.0551 6.25366 11.544C6.45822 12.033 6.75792 12.4764 7.13535 12.8485C7.51278 13.2207 7.9604 13.5141 8.45221 13.7117C8.94401 13.9093 9.47019 14.0072 10.0002 13.9997C11.061 13.9997 12.0784 13.5783 12.8285 12.8282C13.5786 12.0781 14 11.0607 14 9.99989C14 8.93906 13.5786 7.92169 12.8285 7.17157C12.0784 6.42145 11.061 6.00084 10.0002 6.00084ZM10.0002 7.60078C10.319 7.59491 10.6357 7.65262 10.932 7.77054C11.2282 7.88846 11.498 8.06424 11.7255 8.28759C11.9531 8.51094 12.1338 8.7774 12.2572 9.0714C12.3807 9.3654 12.4442 9.68104 12.4443 9.99988C12.4443 10.3187 12.3809 10.6344 12.2576 10.9284C12.1342 11.2225 11.9536 11.489 11.7261 11.7124C11.4986 11.9358 11.2289 12.1117 10.9327 12.2297C10.6365 12.3478 10.3198 12.4056 10.001 12.3998C9.36447 12.3998 8.75405 12.147 8.30397 11.6969C7.8539 11.2468 7.60106 10.6364 7.60106 9.99989C7.60106 9.3634 7.8539 8.75297 8.30397 8.3029C8.75405 7.85283 9.36447 7.59998 10.001 7.59998L10.0002 7.60078ZM14.2 4.80088C13.9419 4.81121 13.6979 4.921 13.5189 5.10725C13.34 5.2935 13.24 5.54176 13.24 5.80005C13.24 6.05833 13.34 6.30659 13.5189 6.49284C13.6979 6.67909 13.9419 6.78888 14.2 6.79921C14.4652 6.79921 14.7196 6.69386 14.9071 6.50633C15.0946 6.3188 15.2 6.06445 15.2 5.79925C15.2 5.53404 15.0946 5.27969 14.9071 5.09216C14.7196 4.90463 14.4652 4.79928 14.2 4.79928V4.80088Z" fill="#4268FB"/>
</svg>
