<svg width="100" height="100" viewBox="0 0 100 100" fill="none" xmlns="http://www.w3.org/2000/svg">
<rect x="0.5" y="0.5" width="99" height="99" fill="#BFCCFF"/>
<rect x="0.5" y="0.5" width="99" height="99" stroke="#BCC5E4"/>
<path d="M50.0007 23.3333C43.014 23.3333 37.334 29.0133 37.334 35.9999C37.334 42.8533 42.694 48.3999 49.6807 48.6399C49.894 48.6133 50.1073 48.6133 50.2673 48.6399C50.3207 48.6399 50.3473 48.6399 50.4006 48.6399C50.4273 48.6399 50.4273 48.6399 50.454 48.6399C57.2806 48.3999 62.6406 42.8533 62.6673 35.9999C62.6673 29.0133 56.9873 23.3333 50.0007 23.3333Z" fill="white"/>
<path d="M63.5475 55.7334C56.1075 50.7734 43.9742 50.7734 36.4809 55.7334C33.0942 58.0001 31.2275 61.0668 31.2275 64.3468C31.2275 67.6268 33.0942 70.6668 36.4542 72.9068C40.1875 75.4134 45.0942 76.6668 50.0009 76.6668C54.9075 76.6668 59.8142 75.4134 63.5475 72.9068C66.9075 70.6401 68.7742 67.6001 68.7742 64.2934C68.7475 61.0134 66.9075 57.9734 63.5475 55.7334Z" fill="white"/>
</svg>
