<svg width="20" height="20" viewBox="0 0 20 20" fill="none" xmlns="http://www.w3.org/2000/svg">
<path d="M8.33317 12.5001L12.6582 10.0001L8.33317 7.50008V12.5001ZM17.9665 5.97508C18.0748 6.36675 18.1498 6.89175 18.1998 7.55841C18.2582 8.22508 18.2832 8.80008 18.2832 9.30008L18.3332 10.0001C18.3332 11.8251 18.1998 13.1667 17.9665 14.0251C17.7582 14.7751 17.2748 15.2584 16.5248 15.4667C16.1332 15.5751 15.4165 15.6501 14.3165 15.7001C13.2332 15.7584 12.2415 15.7834 11.3248 15.7834L9.99984 15.8334C6.50817 15.8334 4.33317 15.7001 3.47484 15.4667C2.72484 15.2584 2.2415 14.7751 2.03317 14.0251C1.92484 13.6334 1.84984 13.1084 1.79984 12.4417C1.7415 11.7751 1.7165 11.2001 1.7165 10.7001L1.6665 10.0001C1.6665 8.17508 1.79984 6.83341 2.03317 5.97508C2.2415 5.22508 2.72484 4.74175 3.47484 4.53341C3.8665 4.42508 4.58317 4.35008 5.68317 4.30008C6.7665 4.24175 7.75817 4.21675 8.67484 4.21675L9.99984 4.16675C13.4915 4.16675 15.6665 4.30008 16.5248 4.53341C17.2748 4.74175 17.7582 5.22508 17.9665 5.97508Z" fill="#4268FB"/>
</svg>
