<svg width="20" height="20" viewBox="0 0 20 20" fill="none" xmlns="http://www.w3.org/2000/svg">
<path d="M15.0123 2H4.25C3.0125 2 2 3.0125 2 4.25V15.0134C2 16.2509 3.0125 17.2634 4.25 17.2634H15.0134C16.2509 17.2634 17.2634 16.2509 17.2634 15.0134V4.25C17.2623 3.0125 16.2509 2 15.0123 2ZM14.8678 10.1467H13.0565V16.6998H10.3464V10.1467H8.99075V7.88769H10.3464V6.53206C10.3464 4.68931 11.1114 3.593 13.2882 3.593H15.0978V5.85144H13.9661C13.1201 5.85144 13.0638 6.16813 13.0638 6.75706L13.0565 7.88769H15.1068L14.8678 10.1467Z" fill="#4268FB"/>
</svg>
