<svg width="25" height="25" viewBox="0 0 25 25" fill="none" xmlns="http://www.w3.org/2000/svg">
<path d="M10.6335 3.11329L4.61352 7.04329C2.68352 8.30329 2.68352 11.1233 4.61352 12.3833L10.6335 16.3133C11.7135 17.0233 13.4935 17.0233 14.5735 16.3133L20.5635 12.3833C22.4835 11.1233 22.4835 8.31329 20.5635 7.05329L14.5735 3.12329C13.4935 2.40329 11.7135 2.40329 10.6335 3.11329Z" stroke="#353535" stroke-width="1.5" stroke-linecap="round" stroke-linejoin="round"/>
<path d="M6.21361 13.6633L6.20361 18.3533C6.20361 19.6233 7.18361 20.9833 8.38361 21.3833L11.5736 22.4433C12.1236 22.6233 13.0336 22.6233 13.5936 22.4433L16.7836 21.3833C17.9836 20.9833 18.9636 19.6233 18.9636 18.3533V13.7133" stroke="#353535" stroke-width="1.5" stroke-linecap="round" stroke-linejoin="round"/>
<path d="M21.9834 15.5833V9.58325" stroke="#353535" stroke-width="1.5" stroke-linecap="round" stroke-linejoin="round"/>
</svg>
