<svg width="20" height="20" viewBox="0 0 20 20" fill="none" xmlns="http://www.w3.org/2000/svg">
<path d="M6.66685 18.3333H13.3335C16.6835 18.3333 17.2835 16.9917 17.4585 15.3583L18.0835 8.69167C18.3085 6.65833 17.7252 5 14.1668 5H5.83351C2.27518 5 1.69185 6.65833 1.91685 8.69167L2.54185 15.3583C2.71685 16.9917 3.31685 18.3333 6.66685 18.3333Z" stroke="#A1A5AF" stroke-miterlimit="10" stroke-linecap="round" stroke-linejoin="round"/>
<path d="M6.6665 4.99984V4.33317C6.6665 2.85817 6.6665 1.6665 9.33317 1.6665H10.6665C13.3332 1.6665 13.3332 2.85817 13.3332 4.33317V4.99984" stroke="#A1A5AF" stroke-miterlimit="10" stroke-linecap="round" stroke-linejoin="round"/>
<path d="M11.6663 10.8333V11.6667C11.6663 11.675 11.6663 11.675 11.6663 11.6833C11.6663 12.5917 11.658 13.3333 9.99967 13.3333C8.34967 13.3333 8.33301 12.6 8.33301 11.6917V10.8333C8.33301 10 8.33301 10 9.16634 10H10.833C11.6663 10 11.6663 10 11.6663 10.8333Z" stroke="#A1A5AF" stroke-miterlimit="10" stroke-linecap="round" stroke-linejoin="round"/>
<path d="M18.0415 9.1665C16.1165 10.5665 13.9165 11.3998 11.6665 11.6832" stroke="#A1A5AF" stroke-miterlimit="10" stroke-linecap="round" stroke-linejoin="round"/>
<path d="M2.18359 9.3916C4.05859 10.6749 6.17526 11.4499 8.33359 11.6916" stroke="#A1A5AF" stroke-miterlimit="10" stroke-linecap="round" stroke-linejoin="round"/>
</svg>
